HIERARCHY
ROOT Hips
{
	OFFSET -0.001795 -0.223333 0.028219
	CHANNELS 6 Xposition Yposition Zposition Zrotation Yrotation Xrotation 
	JOINT LeftUpLeg
	{
		OFFSET 0.069520 -0.091406 -0.006815
		CHANNELS 3 Zrotation Yrotation Xrotation
		JOINT LeftLeg
		{
			OFFSET 0.034277 -0.375199 -0.004496
			CHANNELS 3 Zrotation Yrotation Xrotation
			JOINT LeftFoot
			{
				OFFSET -0.013596 -0.397961 -0.043693
				CHANNELS 3 Zrotation Yrotation Xrotation
				JOINT LeftToe
				{
					OFFSET 0.026358 -0.055791 0.119288
					CHANNELS 3 Zrotation Yrotation Xrotation
					End Site
					{
						OFFSET 0.000000 0.000000 0.000000
					}
				}
			}
		}
	}
	JOINT RightUpLeg
	{
		OFFSET -0.067670 -0.090522 -0.004320
		CHANNELS 3 Zrotation Yrotation Xrotation
		JOINT RightLeg
		{
			OFFSET -0.038290 -0.382569 -0.008850
			CHANNELS 3 Zrotation Yrotation Xrotation
			JOINT RightFoot
			{
				OFFSET 0.015774 -0.398415 -0.042312
				CHANNELS 3 Zrotation Yrotation Xrotation
				JOINT RightToe
				{
					OFFSET -0.025372 -0.048144 0.123348
					CHANNELS 3 Zrotation Yrotation Xrotation
					End Site
					{
						OFFSET 0.000000 0.000000 0.000000
					}
				}
			}
		}
	}
	JOINT Spine
	{
		OFFSET -0.002533 0.108963 -0.026696
		CHANNELS 3 Zrotation Yrotation Xrotation
		JOINT Spine1
		{
			OFFSET 0.005487 0.135180 0.001092
			CHANNELS 3 Zrotation Yrotation Xrotation
			JOINT Spine2
			{
				OFFSET 0.001457 0.052922 0.025425
				CHANNELS 3 Zrotation Yrotation Xrotation
				JOINT Neck
				{
					OFFSET -0.002778 0.213870 -0.042857
					CHANNELS 3 Zrotation Yrotation Xrotation
					JOINT Head
					{
						OFFSET 0.005152 0.064970 0.051349
						CHANNELS 3 Zrotation Yrotation Xrotation
						End Site
						{
							OFFSET 0.000000 0.000000 0.000000
						}
					}
				}
				JOINT LeftShoulder
				{
					OFFSET 0.078845 0.121749 -0.034090
					CHANNELS 3 Zrotation Yrotation Xrotation
					JOINT LeftArm
					{
						OFFSET 0.090977 0.030469 -0.008868
						CHANNELS 3 Zrotation Yrotation Xrotation
						JOINT LeftForeArm
						{
							OFFSET 0.259612 -0.012772 -0.027456
							CHANNELS 3 Zrotation Yrotation Xrotation
							JOINT LeftHand
							{
								OFFSET 0.249234 0.008986 -0.001171
								CHANNELS 3 Zrotation Yrotation Xrotation
								End Site
								{
									OFFSET 0.000000 0.000000 0.000000
								}
							}
						}
					}
				}
				JOINT RightShoulder
				{
					OFFSET -0.081759 0.118833 -0.038615
					CHANNELS 3 Zrotation Yrotation Xrotation
					JOINT RightArm
					{
						OFFSET -0.096012 0.032551 -0.009143
						CHANNELS 3 Zrotation Yrotation Xrotation
						JOINT RightForeArm
						{
							OFFSET -0.253742 -0.013329 -0.021401
							CHANNELS 3 Zrotation Yrotation Xrotation
							JOINT RightHand
							{
								OFFSET -0.255298 0.007772 -0.005559
								CHANNELS 3 Zrotation Yrotation Xrotation
								End Site
								{
									OFFSET 0.000000 0.000000 0.000000
								}
							}
						}
					}
				}
			}
		}
	}
}
MOTION
Frames: 10
Frame Time: 0.050000
0.000000 0.946561 0.000000 0.280073 -1.250205 6.502100 5.306518 -0.396967 -5.782651 -1.037058 0.222859 -4.363432 1.821197 7.098443 10.685676 0.000000 0.000000 0.000000 -3.671626 0.667651 -7.529758 -2.179267 0.089107 -2.225728 0.386465 -3.849579 10.487949 0.000000 0.000000 0.000000 4.579597 0.012146 -1.889297 -2.703848 1.240226 -6.960061 -4.557948 4.270788 6.654882 5.297589 -1.841259 -14.637633 0.000000 0.000000 0.000000 -13.912691 -2.311588 -0.955390 -52.359932 -7.857645 -2.926096 -2.901097 -10.889088 0.623771 0.000000 0.000000 0.000000 11.814782 -5.903471 -3.192417 60.982344 4.432455 -3.504261 1.587251 16.777200 0.884920 0.000000 0.000000 0.000000 
-0.000200 0.946186 0.000028 0.188100 -1.948773 7.205539 5.269457 -0.374656 -5.211078 -0.736459 0.246734 -5.886862 1.739100 6.982156 11.091353 0.000000 0.000000 0.000000 -3.847904 0.744288 -8.534653 -2.271416 0.114785 -1.859906 0.887603 -3.291917 11.370176 0.000000 0.000000 0.000000 5.850123 -0.007563 -1.987188 -3.402320 1.494367 -7.721925 -6.025372 5.599578 5.977048 5.594457 -1.580590 -16.704392 0.000000 0.000000 0.000000 -14.191393 -2.355841 -1.223059 -52.770667 -8.176661 -2.714248 -1.806958 -9.052355 0.422161 0.000000 0.000000 0.000000 12.175687 -7.381783 -3.791720 62.299251 3.166849 -4.036112 2.020228 16.448724 0.945359 0.000000 0.000000 0.000000 
-0.000286 0.945546 -0.000060 0.553250 -1.547156 7.175957 4.833816 -0.405572 -5.597603 -0.769166 0.202231 -4.297193 1.957015 7.056205 9.740419 0.000000 0.000000 0.000000 -4.295544 0.726409 -8.526975 -2.066173 0.107815 -1.711664 0.638419 -3.465014 10.701958 0.000000 0.000000 0.000000 5.642215 -0.024602 -1.776260 -3.114587 1.379569 -8.836607 -6.476915 5.429450 6.444183 5.752839 -1.723825 -16.352606 0.000000 0.000000 0.000000 -14.333074 -2.784343 -1.051594 -52.988726 -7.184418 -3.199833 -1.625544 -7.905948 0.359169 0.000000 0.000000 0.000000 12.868045 -6.720946 -3.506664 62.378882 2.308166 -4.579290 2.205754 16.251301 0.958756 0.000000 0.000000 0.000000 
-0.000346 0.944943 -0.000041 0.694786 -1.099483 7.601431 5.237017 -0.430422 -6.134009 -1.328519 0.250542 -4.703284 1.454465 6.392877 10.310796 0.000000 0.000000 0.000000 -4.514832 0.766601 -9.276282 -2.218663 0.128031 -1.612864 0.618403 -3.628444 11.202869 0.000000 0.000000 0.000000 5.651691 -0.002319 -2.132740 -3.207477 1.428270 -8.083285 -6.694446 4.566586 5.140325 5.566235 -1.753105 -15.590852 0.000000 0.000000 0.000000 -14.573309 -1.844333 -1.470837 -53.522564 -7.051165 -3.166900 -0.537435 -7.298732 0.266096 0.000000 0.000000 0.000000 11.758057 -6.984271 -3.622434 63.083233 1.902195 -4.654587 3.542312 15.884838 1.067173 0.000000 0.000000 0.000000 
-0.000430 0.944855 0.000043 0.902484 -0.821033 7.408092 4.781789 -0.442356 -6.129781 -1.117386 0.226388 -4.337090 1.279174 6.008047 9.883949 0.000000 0.000000 0.000000 -4.730968 0.746898 -9.174807 -2.209111 0.141012 -1.403275 0.263142 -4.208103 10.983705 0.000000 0.000000 0.000000 5.338552 -0.001626 -2.056264 -2.920967 1.324645 -7.909922 -6.721965 4.456457 5.081644 5.121028 -1.517020 -15.285798 0.000000 0.000000 0.000000 -14.897890 -1.647878 -1.627569 -53.714979 -7.102134 -3.146053 -0.927185 -7.095408 0.281707 0.000000 0.000000 0.000000 11.294996 -6.969512 -3.560905 63.710858 1.565903 -4.837853 3.902660 16.333917 1.149053 0.000000 0.000000 0.000000 
-0.000476 0.945032 0.000201 1.034635 -0.824170 7.347456 4.683768 -0.442559 -6.096001 -1.179533 0.228205 -4.230375 1.201453 5.945899 10.131630 0.000000 0.000000 0.000000 -4.896011 0.750987 -9.361930 -2.194788 0.147519 -1.272284 0.160018 -4.390174 10.924742 0.000000 0.000000 0.000000 5.265436 0.000133 -2.053876 -2.938662 1.331102 -7.991248 -6.604262 4.372058 5.102857 5.349265 -1.714032 -14.985921 0.000000 0.000000 0.000000 -15.279262 -1.245758 -1.857866 -53.819960 -6.877823 -3.247502 -1.000960 -7.740811 0.311508 0.000000 0.000000 0.000000 11.010784 -6.969838 -3.545771 64.310372 1.645277 -4.826410 4.588544 16.376957 1.234451 0.000000 0.000000 0.000000 
-0.000547 0.945069 0.000321 1.042642 -0.862144 7.205746 4.542544 -0.447129 -6.155686 -0.937143 0.207231 -4.084211 1.110330 5.858395 10.378254 0.000000 0.000000 0.000000 -4.857740 0.740129 -9.174009 -2.213690 0.160659 -1.078864 0.007722 -4.585452 10.607672 0.000000 0.000000 0.000000 5.326528 -0.010814 -1.907928 -2.920063 1.323683 -8.032914 -6.467981 4.234962 5.220690 5.271780 -1.675108 -15.066331 0.000000 0.000000 0.000000 -15.303301 -0.586696 -2.136492 -53.966298 -6.502033 -3.446936 -1.486073 -9.022693 0.399302 0.000000 0.000000 0.000000 10.667006 -7.098724 -3.591032 64.616369 1.332986 -5.032638 5.382190 17.548080 1.445943 0.000000 0.000000 0.000000 
-0.000604 0.945133 0.000408 1.064751 -0.956796 7.320251 4.356169 -0.459164 -6.283770 -0.860461 0.196087 -3.873134 1.248061 6.069823 10.333932 0.000000 0.000000 0.000000 -4.774211 0.768419 -9.557327 -2.298678 0.187279 -0.756491 0.074051 -4.360931 10.310262 0.000000 0.000000 0.000000 5.197322 0.007759 -2.120346 -2.776257 1.266674 -7.871120 -6.185931 4.069436 5.174715 5.467445 -1.881652 -14.672150 0.000000 0.000000 0.000000 -15.229424 0.077658 -2.390975 -54.133606 -6.069052 -3.660723 -2.358434 -10.486124 0.541422 0.000000 0.000000 0.000000 10.480156 -7.303162 -3.696875 64.823680 1.254003 -5.101844 5.690905 18.125025 1.540004 0.000000 0.000000 0.000000 
-0.000682 0.945379 0.000467 1.097023 -1.188211 7.165052 4.343636 -0.461539 -6.392149 -0.940588 0.194672 -3.571045 1.245623 6.031046 10.292928 0.000000 0.000000 0.000000 -4.765955 0.766010 -9.493468 -2.162770 0.191335 -0.454356 0.131639 -4.221775 10.158949 0.000000 0.000000 0.000000 5.215522 -0.010178 -1.878220 -2.702877 1.233412 -8.250019 -5.963546 4.174921 5.476198 5.700100 -2.081564 -14.410844 0.000000 0.000000 0.000000 -14.958635 0.612771 -2.577144 -54.331578 -5.846254 -3.824229 -3.244850 -12.095965 0.714841 0.000000 0.000000 0.000000 10.304037 -7.710661 -3.870822 64.716546 1.189569 -5.161636 6.229308 18.854781 1.695890 0.000000 0.000000 0.000000 
-0.000756 0.945855 0.000573 1.023900 -1.581558 7.217541 4.353538 -0.462737 -6.476513 -0.876923 0.189693 -3.546282 1.212499 5.989137 10.498526 0.000000 0.000000 0.000000 -4.713114 0.779518 -9.594638 -2.211961 0.204136 -0.294482 0.267609 -4.063089 10.325018 0.000000 0.000000 0.000000 5.169097 0.009841 -2.094878 -2.570039 1.174999 -8.141772 -5.618464 4.233278 5.627488 6.011055 -2.303665 -14.411448 0.000000 0.000000 0.000000 -15.007821 1.137435 -2.787157 -54.470792 -5.594405 -3.971069 -3.968687 -13.180924 0.863164 0.000000 0.000000 0.000000 10.357777 -7.840070 -3.959015 64.585557 1.444043 -5.059312 6.134401 18.968671 1.689922 0.000000 0.000000 0.000000 
